<svg width="143.000000" height="35.000000" viewBox="0 0 143 35" fill="none" xmlns="http://www.w3.org/2000/svg" xmlns:xlink="http://www.w3.org/1999/xlink">
	<desc>
			Created with Pixso.
	</desc>
	<defs/>
	<path d="M17.5 0L15.03 9.1L8.03 2.77L10.88 11.77L1.58 10.23L8.83 16.25L0.17 19.99L9.54 21.13L4.27 28.96L12.76 24.86L12.56 34.29L17.5 26.25L22.43 34.29L22.23 24.86L30.72 28.96L25.45 21.13L34.82 19.99L26.16 16.25L33.41 10.23L24.11 11.77L26.96 2.77L19.96 9.1L17.5 0Z" fill="#598D66" fill-opacity="1.000000" fill-rule="evenodd"/>
	<path d="M66.11 20.04L69.17 24.56L72.03 24.56L67.85 18.54L71.75 14.1L68.91 14.1L64.69 18.79L64.69 9.96L62.01 9.96L62.01 24.56L64.69 24.56L64.69 21.44L66.11 20.04ZM44.48 10.36L44.48 24.56L47.24 24.56L47.24 10.36L44.48 10.36ZM94.66 24.56L94.66 10.36L91.92 10.36L91.92 16.1L85.48 16.1L85.48 10.36L82.72 10.36L82.72 24.56L85.48 24.56L85.48 18.5L91.92 18.5L91.92 24.56L94.66 24.56ZM122.98 24.32C123.79 24.61 124.64 24.76 125.54 24.76C126.82 24.76 127.84 24.46 128.6 23.88C129.36 23.29 129.74 22.48 129.74 21.44C129.74 20.8 129.58 20.29 129.28 19.92C128.98 19.54 128.54 19.24 127.96 19C127.38 18.76 126.68 18.51 125.86 18.26C125.22 18.07 124.74 17.9 124.42 17.74C124.11 17.58 123.96 17.31 123.96 16.94C123.96 16.54 124.12 16.26 124.44 16.1C124.77 15.94 125.15 15.86 125.58 15.86Q127.02 15.86 128.56 17.06L129.64 15.36Q128.93 14.68 128.08 14.33Q127.95 14.28 127.82 14.24C127.15 14 126.44 13.88 125.7 13.88Q123.78 13.88 122.62 14.8C121.84 15.41 121.46 16.23 121.46 17.26C121.46 17.83 121.58 18.29 121.84 18.66Q122.24 19.2 123.02 19.58C123.54 19.83 124.18 20.08 124.96 20.32C125.65 20.53 126.19 20.71 126.58 20.86C126.96 20.99 127.16 21.25 127.16 21.64C127.16 22.01 127 22.29 126.68 22.48C126.37 22.66 125.96 22.76 125.44 22.76C124.86 22.76 124.28 22.64 123.68 22.4C123.08 22.16 122.46 21.78 121.84 21.28L120.88 23.02C121.46 23.59 122.16 24.02 122.98 24.32ZM57 24.56L59.68 24.56L59.68 18.02Q59.68 17.44 59.6 16.87Q59.57 16.69 59.54 16.52C59.46 16.02 59.3 15.58 59.08 15.2C58.85 14.8 58.53 14.48 58.12 14.26Q57.5 13.9 56.52 13.9Q55.23 13.9 54.19 14.4Q54.11 14.44 54.04 14.48Q53.21 14.9 52.67 15.56Q52.5 15.77 52.36 16.02L52.36 14.08L49.94 14.08L49.94 24.56L52.62 24.56L52.62 18.44C52.75 18.01 52.96 17.64 53.26 17.32C53.55 16.98 53.88 16.72 54.24 16.54Q54.8 16.26 55.34 16.26Q55.8 16.26 56.14 16.45Q56.38 16.6 56.56 16.84C56.85 17.22 57 17.84 57 18.68L57 24.56ZM99.06 24.02C99.89 24.51 100.88 24.76 102.02 24.76C103.16 24.76 104.13 24.51 104.94 24.02C105.77 23.51 106.4 22.84 106.84 22.02C107.28 21.19 107.5 20.29 107.5 19.34C107.5 18.36 107.28 17.46 106.84 16.64C106.4 15.81 105.77 15.15 104.94 14.66C104.13 14.15 103.16 13.9 102.02 13.9C100.89 13.9 99.91 14.15 99.08 14.66C98.27 15.15 97.64 15.81 97.18 16.64C96.74 17.46 96.52 18.36 96.52 19.34C96.52 20.29 96.74 21.19 97.18 22.02C97.62 22.84 98.25 23.51 99.06 24.02ZM133.48 24.02C134.31 24.51 135.28 24.76 136.42 24.76C137.58 24.76 138.59 24.5 139.44 24C140.29 23.48 140.91 22.82 141.3 22.02L139 21.38C138.83 21.8 138.5 22.15 138.02 22.42C137.55 22.67 137.05 22.8 136.52 22.8C135.81 22.8 135.19 22.56 134.64 22.1C134.11 21.63 133.81 20.99 133.74 20.18L141.84 20.18C141.88 19.92 141.9 19.62 141.9 19.28C141.9 18.33 141.68 17.45 141.24 16.64C140.81 15.81 140.19 15.15 139.38 14.66C138.57 14.15 137.59 13.9 136.44 13.9C135.29 13.9 134.31 14.15 133.48 14.66Q132.82 15.05 132.32 15.59Q131.88 16.06 131.56 16.66Q131.37 17 131.24 17.37Q130.9 18.31 130.9 19.37C130.9 20.34 131.13 21.23 131.58 22.06C132.03 22.87 132.67 23.52 133.48 24.02ZM109.21 14.08L109.21 20.64Q109.21 22.66 110.05 23.72C110.61 24.41 111.43 24.76 112.51 24.76C113.39 24.76 114.2 24.58 114.93 24.22C115.67 23.86 116.27 23.32 116.73 22.6L116.79 23.44C116.85 23.82 117.02 24.13 117.31 24.36C117.62 24.57 118.01 24.68 118.49 24.68C118.64 24.68 118.8 24.67 118.97 24.66C119.16 24.64 119.39 24.61 119.65 24.56L119.65 22.38C119.41 22.35 119.25 22.28 119.15 22.18C119.06 22.06 119.01 21.85 119.01 21.56L119.01 14.08L116.33 14.08L116.33 20.58C116.03 21.22 115.63 21.7 115.13 22.02C114.65 22.32 114.15 22.48 113.63 22.48C112.47 22.48 111.89 21.67 111.89 20.06L111.89 14.08L109.21 14.08ZM139.16 18.48L133.68 18.48Q133.75 17.61 134.18 16.99Q134.34 16.76 134.54 16.58C135.06 16.08 135.68 15.84 136.4 15.84C137.13 15.84 137.75 16.08 138.26 16.58C138.78 17.06 139.08 17.69 139.16 18.48ZM99.64 20.98C99.4 20.5 99.28 19.95 99.28 19.34C99.28 18.72 99.4 18.18 99.64 17.71C99.88 17.24 100.21 16.86 100.62 16.6C101.04 16.32 101.5 16.18 102.02 16.18C102.53 16.18 102.99 16.32 103.4 16.6C103.82 16.86 104.14 17.24 104.38 17.71C104.64 18.18 104.76 18.71 104.76 19.32C104.76 19.93 104.64 20.48 104.38 20.96C104.14 21.42 103.82 21.8 103.4 22.08C102.99 22.34 102.53 22.48 102.02 22.48Q101.5 22.48 101.05 22.29Q100.83 22.21 100.62 22.08C100.21 21.81 99.88 21.44 99.64 20.98ZM73.1 21.68L73.1 24.56L75.3 24.56L75.3 21.68L73.1 21.68Z" fill="#598D66" fill-opacity="1.000000" fill-rule="evenodd"/>
</svg>
