<svg width="18.000000" height="18.000000" viewBox="0 0 18 18" fill="none" xmlns="http://www.w3.org/2000/svg" xmlns:xlink="http://www.w3.org/1999/xlink">
	<desc>
			Created with Pixso.
	</desc>
	<defs/>
	<path d="M12.4 18L12.4 11.03L14.73 11.03L15.08 8.32L12.4 8.32L12.4 6.59C12.4 5.81 12.62 5.27 13.74 5.27L15.17 5.27L15.17 2.85C14.48 2.78 13.78 2.74 13.08 2.75C11.02 2.75 9.6 4.01 9.6 6.33L9.6 8.32L7.26 8.32L7.26 11.03L9.6 11.03L9.6 18L1 18C0.73 18 0.48 17.89 0.29 17.7C0.1 17.51 0 17.26 0 17L0 1C0 0.73 0.1 0.48 0.29 0.29C0.48 0.1 0.73 0 1 0L17 0C17.26 0 17.51 0.1 17.7 0.29C17.89 0.48 18 0.73 18 1L18 17C18 17.26 17.89 17.51 17.7 17.7C17.51 17.89 17.26 18 17 18L12.4 18Z" fill="#2C2D35" fill-opacity="1.000000" fill-rule="nonzero"/>
</svg>
