<svg width="20.000000" height="20.000000" viewBox="0 0 20 20" fill="none" xmlns="http://www.w3.org/2000/svg" xmlns:xlink="http://www.w3.org/1999/xlink">
	<desc>
			Created with Pixso.
	</desc>
	<defs/>
	<path d="M10 0C12.71 0 13.05 0 14.12 0.06C15.18 0.1 15.91 0.27 16.54 0.52C17.2 0.77 17.76 1.12 18.32 1.67C18.83 2.17 19.22 2.78 19.47 3.45C19.72 4.08 19.89 4.81 19.94 5.87C19.98 6.94 20 7.28 20 10C20 12.71 19.99 13.05 19.94 14.12C19.89 15.18 19.72 15.91 19.47 16.54C19.22 17.21 18.83 17.82 18.32 18.32C17.82 18.83 17.21 19.22 16.54 19.47C15.91 19.72 15.18 19.89 14.12 19.93C13.05 19.98 12.71 20 10 20C7.28 20 6.94 19.99 5.87 19.93C4.81 19.89 4.08 19.72 3.45 19.47C2.78 19.22 2.17 18.83 1.67 18.32C1.16 17.82 0.77 17.21 0.52 16.54C0.27 15.91 0.1 15.18 0.05 14.12C0.01 13.05 0 12.71 0 10C0 7.28 0.01 6.94 0.05 5.87C0.1 4.81 0.27 4.08 0.52 3.45C0.77 2.78 1.16 2.17 1.67 1.67C2.17 1.16 2.78 0.77 3.45 0.52C4.08 0.27 4.81 0.1 5.87 0.06C6.94 0.01 7.28 0 10 0ZM10 5C8.67 5 7.4 5.52 6.46 6.46C5.52 7.4 5 8.67 5 10C5 11.32 5.52 12.59 6.46 13.53C7.4 14.47 8.67 15 10 15C11.32 15 12.59 14.47 13.53 13.53C14.47 12.59 15 11.32 15 10C15 8.67 14.47 7.4 13.53 6.46C12.59 5.52 11.32 5 10 5ZM16.5 4.75C16.5 4.41 16.36 4.1 16.13 3.86C15.89 3.63 15.58 3.5 15.25 3.5C14.91 3.5 14.6 3.63 14.36 3.86C14.13 4.1 14 4.41 14 4.75C14 5.08 14.13 5.39 14.36 5.63C14.6 5.86 14.91 6 15.25 6C15.58 6 15.89 5.86 16.13 5.63C16.36 5.39 16.5 5.08 16.5 4.75ZM10 7C10.79 7 11.55 7.31 12.12 7.87C12.68 8.44 13 9.2 13 10C13 10.79 12.68 11.55 12.12 12.12C11.55 12.68 10.79 13 10 13C9.2 13 8.44 12.68 7.87 12.12C7.31 11.55 7 10.79 7 10C7 9.2 7.31 8.44 7.87 7.87C8.44 7.31 9.2 7 10 7Z" fill="#2C2D35" fill-opacity="1.000000" fill-rule="nonzero"/>
</svg>
