<svg width="20.000000" height="16.000000" viewBox="0 0 20 16" fill="none" xmlns="http://www.w3.org/2000/svg" xmlns:xlink="http://www.w3.org/1999/xlink">
	<desc>
			Created with Pixso.
	</desc>
	<defs/>
	<path d="M19.54 2.49C20 4.27 20 8 20 8C20 8 20 11.72 19.54 13.5C19.28 14.48 18.54 15.26 17.6 15.52C15.89 16 10 16 10 16C10 16 4.1 16 2.39 15.52C1.45 15.25 0.7 14.48 0.45 13.5C0 11.72 0 8 0 8C0 8 0 4.27 0.45 2.49C0.71 1.51 1.45 0.73 2.39 0.47C4.1 0 10 0 10 0C10 0 15.89 0 17.6 0.47C18.54 0.74 19.29 1.51 19.54 2.49ZM8 11.5L14 8L8 4.5L8 11.5Z" fill="#2C2D35" fill-opacity="1.000000" fill-rule="nonzero"/>
</svg>
